<?xml version="1.0" standalone="no"?><svg xmlns="http://www.w3.org/2000/svg" viewBox="0 0 1440 320"><path fill="#00cba9" fill-opacity="0.5" d="M0,160L24,181.3C48,203,96,245,144,266.7C192,288,240,288,288,266.7C336,245,384,203,432,181.3C480,160,528,160,576,181.3C624,203,672,245,720,218.7C768,192,816,96,864,69.3C912,43,960,85,1008,96C1056,107,1104,85,1152,85.3C1200,85,1248,107,1296,144C1344,181,1392,235,1416,261.3L1440,288L1440,0L1416,0C1392,0,1344,0,1296,0C1248,0,1200,0,1152,0C1104,0,1056,0,1008,0C960,0,912,0,864,0C816,0,768,0,720,0C672,0,624,0,576,0C528,0,480,0,432,0C384,0,336,0,288,0C240,0,192,0,144,0C96,0,48,0,24,0L0,0Z"></path></svg>