<?xml version="1.0" standalone="no"?><svg xmlns="http://www.w3.org/2000/svg" viewBox="0 0 1440 320"><path fill="#e7008a" fill-opacity="0.3" d="M0,96L8.9,128C17.8,160,36,224,53,224C71.1,224,89,160,107,144C124.4,128,142,160,160,181.3C177.8,203,196,213,213,224C231.1,235,249,245,267,261.3C284.4,277,302,299,320,298.7C337.8,299,356,277,373,256C391.1,235,409,213,427,202.7C444.4,192,462,192,480,202.7C497.8,213,516,235,533,202.7C551.1,171,569,85,587,42.7C604.4,0,622,0,640,21.3C657.8,43,676,85,693,101.3C711.1,117,729,107,747,122.7C764.4,139,782,181,800,186.7C817.8,192,836,160,853,176C871.1,192,889,256,907,245.3C924.4,235,942,149,960,96C977.8,43,996,21,1013,37.3C1031.1,53,1049,107,1067,138.7C1084.4,171,1102,181,1120,160C1137.8,139,1156,85,1173,74.7C1191.1,64,1209,96,1227,101.3C1244.4,107,1262,85,1280,85.3C1297.8,85,1316,107,1333,112C1351.1,117,1369,107,1387,133.3C1404.4,160,1422,224,1431,256L1440,288L1440,0L1431.1,0C1422.2,0,1404,0,1387,0C1368.9,0,1351,0,1333,0C1315.6,0,1298,0,1280,0C1262.2,0,1244,0,1227,0C1208.9,0,1191,0,1173,0C1155.6,0,1138,0,1120,0C1102.2,0,1084,0,1067,0C1048.9,0,1031,0,1013,0C995.6,0,978,0,960,0C942.2,0,924,0,907,0C888.9,0,871,0,853,0C835.6,0,818,0,800,0C782.2,0,764,0,747,0C728.9,0,711,0,693,0C675.6,0,658,0,640,0C622.2,0,604,0,587,0C568.9,0,551,0,533,0C515.6,0,498,0,480,0C462.2,0,444,0,427,0C408.9,0,391,0,373,0C355.6,0,338,0,320,0C302.2,0,284,0,267,0C248.9,0,231,0,213,0C195.6,0,178,0,160,0C142.2,0,124,0,107,0C88.9,0,71,0,53,0C35.6,0,18,0,9,0L0,0Z"></path></svg>